<?xml version="1.0" encoding="utf-8"?>
<svg viewBox="258.688 252.839 549.29 134.323" xmlns="http://www.w3.org/2000/svg">
  <defs>
    <clipPath id="clipPath20" clipPathUnits="userSpaceOnUse">
      <path id="path18" d="M 0,480 H 800 V 0 H 0 Z"/>
    </clipPath>
  </defs>
  <g transform="matrix(1.333333, 0, 0, -1.333333, 0, 640)" id="g10">
    <g id="g14">
      <g clip-path="url(#clipPath20)" id="g16">
        <g transform="translate(366.835,230.5986)" id="g22">
          <path id="path24" style="fill: #00213d;fill-opacity:1;fill-rule:nonzero;stroke:none;" d="M 0,0 C 0,4.15 -2.075,7.986 -9.496,7.986 H -19.18 V -9.307 c 2.076,-0.063 4.339,-0.252 6.54,-0.252 7.798,0 12.64,1.699 12.64,8.491 z m -0.251,21.067 c 0,6.037 -5.031,7.294 -12.703,7.294 -2.138,0 -4.465,-0.125 -6.226,-0.188 V 12.577 h 9.684 c 7.295,0 9.245,3.522 9.245,7.484 z M -12.64,-14.4 c -4.15,0 -7.86,0.188 -10.25,0.566 -1.446,0.188 -2.075,0.754 -2.075,2.326 v 41.882 c 0,1.446 0.692,2.201 2.012,2.327 2.075,0.251 5.911,0.503 9.999,0.503 9.998,0 18.426,-2.641 18.426,-12.137 v -1.006 c 0,-4.654 -2.453,-8.238 -6.729,-9.873 C 3.082,8.678 5.723,4.843 5.723,0 V -1.068 C 5.723,-11.634 -2.83,-14.4 -12.64,-14.4"/>
        </g>
        <g transform="translate(405.7061,250.2822)" id="g26">
          <path id="path28" style="fill: #00213d;fill-opacity:1;fill-rule:nonzero;stroke:none;" d="m 0,0 c 0,6.288 -4.088,8.363 -11.948,8.363 -1.95,0 -5.408,0 -6.918,-0.188 V -9.056 c 2.767,-0.063 5.471,-0.126 6.918,-0.126 C -4.214,-9.182 0,-7.232 0,-0.44 Z M 6.603,-33.644 H 2.578 c -0.754,0 -1.132,0 -1.635,0.818 l -11.256,18.74 h -0.566 -1.069 c -2.075,0 -3.585,0.063 -6.918,0.189 v -18.489 c 0,-0.629 -0.44,-1.258 -1.132,-1.258 h -3.396 c -0.628,0 -1.131,0.566 -1.131,1.258 v 44.02 c 0,0.88 0.377,1.258 1.509,1.383 2.704,0.315 7.42,0.503 11.068,0.503 C -2.013,13.52 5.66,10.187 5.66,0 v -0.44 c 0,-7.043 -4.15,-11.194 -9.874,-12.704 L 7.231,-32.261 c 0.126,-0.188 0.19,-0.377 0.19,-0.565 0,-0.441 -0.316,-0.818 -0.818,-0.818"/>
        </g>
        <g transform="translate(439.0312,257.7026)" id="g30">
          <path id="path32" style="fill: #00213d;fill-opacity:1;fill-rule:nonzero;stroke:none;" d="M 0,0 C -0.188,0.691 -0.566,1.132 -1.195,1.132 -1.887,1.132 -2.265,0.691 -2.453,0 L -8.176,-20.689 H 5.723 Z m 15.784,-41.064 h -3.71 c -0.566,0 -0.944,0.44 -1.069,0.943 L 6.917,-25.658 H -9.37 l -4.025,-14.463 c -0.126,-0.503 -0.629,-0.943 -1.132,-0.943 h -3.71 c -0.629,0 -1.069,0.44 -1.069,1.006 0,0.126 0,0.314 0.063,0.44 L -7.609,1.321 C -6.54,5.157 -3.585,6.1 -1.195,6.1 1.132,6.1 4.087,5.219 5.156,1.383 L 16.79,-39.618 c 0.064,-0.126 0.064,-0.314 0.064,-0.44 0,-0.566 -0.378,-1.006 -1.07,-1.006"/>
        </g>
        <g transform="translate(468.4619,216.6387)" id="g34">
          <path id="path36" style="fill: #00213d;fill-opacity:1;fill-rule:nonzero;stroke:none;" d="M 0,0 H -3.458 C -4.087,0 -4.59,0.565 -4.59,1.258 v 44.271 c 0,0.628 0.441,1.195 1.132,1.195 H 0 c 0.63,0 1.133,-0.503 1.133,-1.195 V 1.258 C 1.133,0.629 0.692,0 0,0"/>
        </g>
        <g transform="translate(510.9922,216.6387)" id="g38">
          <path id="path40" style="fill: #00213d;fill-opacity:1;fill-rule:nonzero;stroke:none;" d="M 0,0 H -3.898 C -4.904,0 -5.596,0.377 -5.91,1.006 l -19.433,36.913 c -0.062,0.126 -0.125,0.189 -0.188,0.189 -0.063,0 -0.063,-0.063 -0.063,-0.189 V 1.194 C -25.594,0.565 -26.098,0 -26.726,0 h -3.27 c -0.629,0 -1.132,0.126 -1.132,0.754 v 44.208 c 0,1.007 0.817,1.762 1.823,1.762 h 3.459 c 1.761,0 2.075,-0.315 2.578,-1.258 L -3.962,8.74 -3.836,8.552 c 0.063,0 0.063,0.126 0.063,0.188 v 36.789 c 0,0.628 0.503,1.195 1.132,1.195 h 3.333 c 0.692,0 1.132,-0.567 1.132,-1.195 V 1.823 C 1.824,0.817 1.007,0 0,0"/>
        </g>
        <g transform="translate(527.7832,216.6387)" id="g42">
          <path id="path44" style="fill: #00213d;fill-opacity:1;fill-rule:nonzero;stroke:none;" d="M 0,0 H -3.458 C -4.087,0 -4.59,0.565 -4.59,1.258 v 44.271 c 0,0.628 0.441,1.195 1.132,1.195 H 0 c 0.63,0 1.133,-0.503 1.133,-1.195 V 1.258 C 1.133,0.629 0.692,0 0,0"/>
        </g>
        <g transform="translate(556.1084,257.7026)" id="g46">
          <path id="path48" style="fill: #00213d;fill-opacity:1;fill-rule:nonzero;stroke:none;" d="M 0,0 C -0.188,0.691 -0.565,1.132 -1.195,1.132 -1.887,1.132 -2.265,0.691 -2.453,0 L -8.176,-20.689 H 5.723 Z m 15.784,-41.064 h -3.71 c -0.566,0 -0.944,0.44 -1.069,0.943 L 6.917,-25.658 H -9.37 l -4.025,-14.463 c -0.126,-0.503 -0.628,-0.943 -1.132,-0.943 h -3.71 c -0.628,0 -1.069,0.44 -1.069,1.006 0,0.126 0,0.314 0.063,0.44 L -7.609,1.321 C -6.54,5.157 -3.584,6.1 -1.195,6.1 1.132,6.1 4.087,5.219 5.156,1.383 L 16.79,-39.618 c 0.063,-0.126 0.063,-0.314 0.063,-0.44 0,-0.566 -0.377,-1.006 -1.069,-1.006"/>
        </g>
        <g transform="translate(605.3545,216.7646)" id="g50">
          <path id="path52" style="fill: #00213d;fill-opacity:1;fill-rule:nonzero;stroke:none;" d="m 0,0 c -1.635,-0.252 -6.352,-0.566 -12.263,-0.566 -6.728,0 -13.394,1.32 -13.394,11.696 v 34.21 c 0,0.691 0.566,1.258 1.258,1.258 h 3.207 c 0.691,0 1.257,-0.567 1.257,-1.258 V 11.13 c 0,-4.779 1.07,-6.54 7.736,-6.54 h 12.137 c 0.439,0 0.691,-0.315 0.691,-0.754 V 0.88 C 0.629,0.503 0.377,0.062 0,0"/>
        </g>
        <g transform="translate(306.7451,239.6265)" id="g54">
          <path id="path56" style="fill:#29b6f6;fill-opacity:1;fill-rule:nonzero;stroke:none" d="m 0,0 c -0.22,-0.316 -0.562,-0.526 -0.944,-0.578 -0.383,-0.052 -0.769,0.058 -1.065,0.305 l -4.8,3.987 c -0.451,0.375 -0.615,0.993 -0.41,1.541 0.206,0.549 0.736,0.907 1.321,0.893 L 1.552,5.975 C 2.058,5.963 2.517,5.675 2.747,5.223 2.976,4.772 2.939,4.231 2.65,3.815 Z m -18.843,-18.921 c -0.175,-0.054 -0.358,-0.073 -0.539,-0.055 l -17.144,1.669 c -0.532,0.052 -0.985,0.406 -1.163,0.91 -0.179,0.503 -0.05,1.064 0.33,1.439 l 7.947,7.837 10e-4,0.001 17.411,-7.138 c 0.538,-0.22 0.878,-0.754 0.853,-1.334 -0.026,-0.581 -0.414,-1.082 -0.969,-1.253 z m 3.79,-24.964 c 0.073,-0.259 -0.064,-0.53 -0.314,-0.625 -0.191,-0.073 -0.407,-0.027 -0.551,0.118 l -19.726,19.725 c -0.41,0.411 -0.519,1.035 -0.271,1.56 0.248,0.525 0.799,0.838 1.377,0.782 l 12.871,-1.252 c 0.565,-0.054 1.038,-0.451 1.191,-0.997 z m -52.514,27.861 c -0.446,0.322 -0.657,0.881 -0.536,1.418 0.122,0.537 0.552,0.949 1.094,1.049 l 25.388,4.673 c 0.594,0.109 1.19,-0.182 1.47,-0.717 0.278,-0.536 0.175,-1.191 -0.255,-1.615 l -5.307,-5.236 c -0.183,-0.179 -0.412,-0.305 -0.661,-0.362 l -14.689,-3.342 c -0.385,-0.088 -0.791,-0.006 -1.111,0.227 z m -25.787,2.509 c -0.488,-0.09 -0.987,0.091 -1.305,0.472 l -9.689,11.627 c -0.305,0.367 -0.399,0.864 -0.248,1.316 0.15,0.452 0.524,0.794 0.987,0.904 l 33.822,8.039 v 0 l 10.28,-16.136 h -0.002 l -16.037,-2.954 h -0.002 l -1.01,-0.184 z m -6.895,26.83 c 0.006,0.01 0.012,0.02 0.018,0.03 l 6.236,10.861 v 0.001 l 19.087,-11.645 v 0 l -26.947,-6.403 c -0.54,-0.129 -1.104,0.08 -1.431,0.528 -0.326,0.449 -0.351,1.05 -0.063,1.524 z m 26.613,25.794 c 0.132,0.09 0.279,0.156 0.433,0.196 l 17.384,4.463 c 0.535,0.137 1.1,-0.059 1.435,-0.497 0.336,-0.439 0.376,-1.036 0.103,-1.516 L -68.842,16.147 c -0.184,-0.323 -0.491,-0.558 -0.852,-0.651 -0.36,-0.094 -0.743,-0.037 -1.061,0.157 l -19.669,12 h 0.001 z m 17.442,-15.738 c -0.526,-0.373 -1.241,-0.33 -1.719,0.102 -0.478,0.433 -0.591,1.14 -0.273,1.701 l 11.038,19.411 c 0.31,0.544 0.947,0.811 1.551,0.649 l 11.864,-3.17 c 0.515,-0.138 0.904,-0.561 0.999,-1.086 0.094,-0.525 -0.123,-1.057 -0.558,-1.366 z m 49.854,1.193 c 0.314,-0.243 0.507,-0.61 0.531,-1.006 0.024,-0.396 -0.125,-0.784 -0.407,-1.062 L -17.65,11.222 -20.26,8.648 -24.211,4.752 c -0.413,-0.407 -1.036,-0.511 -1.559,-0.262 -0.523,0.25 -0.834,0.801 -0.776,1.378 l 2.918,29.41 c 0.049,0.498 0.365,0.93 0.824,1.128 0.46,0.198 0.991,0.131 1.387,-0.176 z M -30.652,13.109 c -0.073,-0.734 -0.712,-1.281 -1.449,-1.238 l -25.689,1.481 c -0.583,0.033 -1.082,0.432 -1.243,0.994 -0.161,0.561 0.05,1.164 0.527,1.502 l 27.789,19.706 c 0.44,0.312 1.021,0.338 1.487,0.067 0.466,-0.271 0.731,-0.789 0.678,-1.325 z M -53.5,-6.187 c -0.551,-0.102 -1.109,0.142 -1.41,0.613 l -7.78,12.215 c -0.278,0.435 -0.288,0.989 -0.027,1.435 0.262,0.445 0.751,0.707 1.266,0.677 l 28.762,-1.658 c 0.374,-0.021 0.723,-0.195 0.966,-0.48 0.244,-0.284 0.361,-0.657 0.324,-1.029 l -0.676,-6.82 c -0.061,-0.61 -0.518,-1.106 -1.12,-1.218 z m 50.208,-4.519 c -0.037,-0.436 -0.28,-0.829 -0.654,-1.057 -0.374,-0.229 -0.834,-0.266 -1.239,-0.099 l -20.509,8.408 10e-4,0.001 8.258,8.141 c 0.504,0.497 1.302,0.531 1.845,0.079 L -3.427,-5.336 c 0.346,-0.289 0.53,-0.727 0.491,-1.175 z M 2.74,12.902 C 3.017,12.474 3.034,11.928 2.785,11.484 2.537,11.039 2.063,10.768 1.553,10.78 l -9.272,0.214 c -0.552,0.012 -1.044,0.354 -1.247,0.867 -0.204,0.514 -0.081,1.099 0.312,1.488 l 5.579,5.502 c 0.295,0.29 0.704,0.433 1.116,0.388 0.412,-0.046 0.781,-0.274 1.005,-0.621 z M 0.465,25.269 c -0.084,0.13 -0.19,0.246 -0.313,0.341 l -22.976,17.781 -1.214,0.94 c -0.145,0.112 -0.31,0.194 -0.487,0.241 l -1.287,0.344 -21.621,5.782 c -0.228,0.061 -0.468,0.062 -0.697,0.003 l -27.084,-6.954 c -0.155,-0.04 -0.302,-0.106 -0.434,-0.197 L -96.397,29.392 c -0.172,-0.117 -0.314,-0.271 -0.418,-0.452 l -7.537,-13.127 c -0.005,-0.01 -0.011,-0.02 -0.017,-0.03 l -8.16,-13.43 c -0.305,-0.503 -0.257,-1.144 0.119,-1.595 l 15.859,-19.03 c 0.318,-0.382 0.817,-0.562 1.306,-0.473 l 17.967,3.297 c 0.369,0.069 0.751,-0.018 1.055,-0.239 l 12.992,-9.408 c 0.321,-0.233 0.726,-0.316 1.112,-0.228 l 15.826,3.602 c 0.46,0.105 0.943,-0.034 1.277,-0.368 l 27.505,-27.505 c 0.383,-0.383 0.955,-0.506 1.462,-0.314 l 5.758,2.191 c 0.666,0.253 1.029,0.971 0.836,1.657 l -6.101,21.727 c -0.202,0.719 0.206,1.467 0.919,1.687 l 14.669,4.52 c 0.536,0.166 0.918,0.639 0.966,1.198 L 1.932,-5.96 c 0.02,0.24 0.103,0.47 0.24,0.668 l 8.821,12.7 c 0.318,0.458 0.328,1.063 0.025,1.532 z"/>
        </g>
      </g>
    </g>
  </g>
</svg>